<svg width="308" height="337" viewBox="0 0 308 337" fill="none" xmlns="http://www.w3.org/2000/svg">
<path d="M190.42 164.091C224.283 164.091 255.324 178.505 277.899 200.606C291.068 214.059 301.415 230.394 308 249.612H253.443C250.621 244.808 246.858 240.003 243.096 236.16C229.927 222.707 211.114 214.059 190.42 214.059C169.726 214.059 151.853 222.707 137.744 236.16C124.575 249.612 116.109 268.831 116.109 289.971C116.109 293.814 116.109 297.658 117.05 300.541L75.6615 336.094C70.0176 321.681 67.1957 306.306 67.1957 289.01C67.1957 254.417 81.3054 222.707 102.94 199.645C125.516 178.505 156.557 164.091 190.42 164.091Z" fill="#3880F4"/>
<path d="M137.476 141.357C120.936 157.116 99.0673 164.522 77.7555 164.233C65.0628 163.791 52.4068 160.628 40.247 154.306L66.8942 128.916C70.5085 129.949 74.5821 130.545 78.2086 130.671C90.9014 131.113 104.115 126.582 114.222 116.951C124.33 107.321 129.034 94.7795 129.665 81.6424C129.837 68.9432 125.028 55.6167 115.19 45.2913C113.401 43.414 111.612 41.5367 109.811 40.5664L113.48 3.93978C122.945 8.35325 131.478 14.5493 139.527 22.9974C155.626 39.8934 163.492 61.9477 163.657 83.2801C162.469 104.112 154.016 125.598 137.476 141.357Z" fill="#99F2DC"/>
</svg>
